<svg version="1.1" id="Layer_1" xmlns="http://www.w3.org/2000/svg" xmlns:xlink="http://www.w3.org/1999/xlink" x="0px" y="0px"
	 width="100%" viewBox="0 0 500 500" enable-background="new 0 0 500 500" xml:space="preserve">
<path fill="#03050D" opacity="1.000000" stroke="none" 
	d="
M454.000000,501.000000 
	C302.666718,501.000000 151.833405,501.000000 1.000081,501.000000 
	C1.000054,334.333405 1.000054,167.666824 1.000027,1.000170 
	C167.666550,1.000114 334.333099,1.000114 500.999756,1.000057 
	C500.999817,167.666519 500.999817,334.333038 500.999908,500.999756 
	C485.500000,501.000000 470.000000,501.000000 454.000000,501.000000 
M177.847015,322.081482 
	C181.985733,321.118805 186.124435,320.156128 190.992081,319.068512 
	C196.602676,316.229309 202.213272,313.390137 208.401108,310.265717 
	C213.688538,306.113129 218.975967,301.960541 224.900757,297.469910 
	C227.216705,295.588043 229.471359,293.624207 231.858871,291.837982 
	C244.501984,282.378967 257.729309,278.448212 272.307007,287.706085 
	C273.130981,288.229370 274.121399,288.490631 275.478943,289.379120 
	C285.556885,300.055664 295.995728,310.254639 309.588684,316.545715 
	C318.853546,320.833618 328.468353,323.531128 338.858765,324.066040 
	C338.776123,323.199066 338.881439,322.636719 338.664062,322.261230 
	C325.097443,298.831146 311.504456,275.416321 297.768921,251.318268 
	C286.269440,231.463242 275.037140,211.445175 263.086243,191.865677 
	C260.025665,186.851456 254.929916,182.942963 250.315338,179.066742 
	C247.690323,176.861755 245.148514,177.637177 243.176865,181.177170 
	C235.167969,195.556656 226.867783,209.774765 218.596176,224.006546 
	C215.942245,228.572800 213.045303,232.997818 210.579453,237.792709 
	C210.658554,237.858444 210.737671,237.924179 210.816788,237.989899 
	C210.704269,237.925171 210.574814,237.878067 210.483978,237.790771 
	C210.392151,237.702530 210.338577,237.574524 210.996811,237.937988 
	C211.483170,237.926117 212.053558,238.078445 212.443787,237.878723 
	C229.643234,229.076355 247.539108,228.041397 266.139008,233.799683 
	C263.284698,249.019348 253.564987,257.461761 238.391342,261.162994 
	C237.938477,261.255371 237.485626,261.347778 236.196854,261.315765 
	C231.801651,261.928375 227.406433,262.540985 222.173035,263.071930 
	C218.121918,263.793365 214.070816,264.514771 209.263702,265.251617 
	C204.847778,266.886536 200.431870,268.521484 195.346146,270.272797 
	C191.480453,274.079956 186.630386,277.299164 183.937805,281.807068 
	C176.526596,294.214722 170.013306,307.159119 163.177368,319.908630 
	C162.912704,320.402283 162.983643,321.075867 162.851669,321.986694 
	C167.798920,321.986694 172.398361,321.986694 177.847015,322.081482 
z"/>
<path fill="#0398DD" opacity="1.000000" stroke="none" 
	d="
M297.913879,252.000076 
	C311.504456,275.416321 325.097443,298.831146 338.664062,322.261230 
	C338.881439,322.636719 338.776123,323.199066 338.858765,324.066040 
	C328.468353,323.531128 318.853546,320.833618 309.588684,316.545715 
	C295.995728,310.254639 285.556885,300.055664 275.168976,288.804138 
	C265.134430,276.308929 254.325897,265.823578 239.085297,261.205322 
	C253.564987,257.461761 263.284698,249.019348 266.429932,233.450653 
	C276.757599,236.487366 285.838806,241.472931 293.521301,248.882034 
	C294.799225,250.114502 296.440521,250.970245 297.913879,252.000076 
z"/>
<path fill="#02ACEA" opacity="1.000000" stroke="none" 
	d="
M297.841400,251.659180 
	C296.440521,250.970245 294.799225,250.114502 293.521301,248.882034 
	C285.838806,241.472931 276.757599,236.487366 266.353027,233.057251 
	C247.539108,228.041397 229.643234,229.076355 212.443787,237.878723 
	C212.053558,238.078445 211.483170,237.926117 210.675980,237.731262 
	C210.355148,237.524521 210.259552,237.487442 210.259552,237.487442 
	C213.045303,232.997818 215.942245,228.572800 218.596176,224.006546 
	C226.867783,209.774765 235.167969,195.556656 243.176865,181.177170 
	C245.148514,177.637177 247.690323,176.861755 250.315338,179.066742 
	C254.929916,182.942963 260.025665,186.851456 263.086243,191.865677 
	C275.037140,211.445175 286.269440,231.463242 297.841400,251.659180 
z"/>
<path fill="#0478B6" opacity="1.000000" stroke="none" 
	d="
M238.738312,261.184143 
	C254.325897,265.823578 265.134430,276.308929 274.946655,288.551514 
	C274.121399,288.490631 273.130981,288.229370 272.307007,287.706085 
	C257.729309,278.448212 244.501984,282.378967 231.858871,291.837982 
	C229.471359,293.624207 227.216705,295.588043 224.546509,297.194427 
	C224.677231,294.846527 224.936981,292.688721 225.685196,290.716156 
	C229.396957,280.930664 233.237564,271.194000 237.032776,261.440155 
	C237.485626,261.347778 237.938477,261.255371 238.738312,261.184143 
z"/>
<path fill="#0468A5" opacity="1.000000" stroke="none" 
	d="
M207.823883,310.550964 
	C202.213272,313.390137 196.602676,316.229309 190.444916,318.852936 
	C190.078430,317.198822 189.967682,315.643677 190.488815,314.341400 
	C193.146347,307.700470 196.069687,301.165497 198.706573,294.516754 
	C202.563889,284.790802 206.256760,274.999603 210.019699,265.236206 
	C214.070816,264.514771 218.121918,263.793365 222.587021,263.507874 
	C222.550781,265.857635 222.337677,267.866943 221.611710,269.669769 
	C216.969177,281.198700 212.104980,292.639954 207.609177,304.224731 
	C206.907318,306.033325 207.714493,308.427551 207.823883,310.550964 
z"/>
<path fill="#04619C" opacity="1.000000" stroke="none" 
	d="
M209.641693,265.243896 
	C206.256760,274.999603 202.563889,284.790802 198.706573,294.516754 
	C196.069687,301.165497 193.146347,307.700470 190.488815,314.341400 
	C189.967682,315.643677 190.078430,317.198822 190.080444,318.915405 
	C186.124435,320.156128 181.985733,321.118805 177.454788,321.653076 
	C180.253342,313.055817 183.556854,304.928741 186.604279,296.706726 
	C189.867233,287.903259 192.888962,279.010315 196.015961,270.156433 
	C200.431870,268.521484 204.847778,266.886536 209.641693,265.243896 
z"/>
<path fill="#0470AE" opacity="1.000000" stroke="none" 
	d="
M208.112503,310.408325 
	C207.714493,308.427551 206.907318,306.033325 207.609177,304.224731 
	C212.104980,292.639954 216.969177,281.198700 221.611710,269.669769 
	C222.337677,267.866943 222.550781,265.857635 223.006119,263.548706 
	C227.406433,262.540985 231.801651,261.928375 236.614807,261.377960 
	C233.237564,271.194000 229.396957,280.930664 225.685196,290.716156 
	C224.936981,292.688721 224.677231,294.846527 224.227844,297.363464 
	C218.975967,301.960541 213.688538,306.113129 208.112503,310.408325 
z"/>
<path fill="#045992" opacity="1.000000" stroke="none" 
	d="
M195.681061,270.214600 
	C192.888962,279.010315 189.867233,287.903259 186.604279,296.706726 
	C183.556854,304.928741 180.253342,313.055817 177.030182,321.605682 
	C172.398361,321.986694 167.798920,321.986694 162.851669,321.986694 
	C162.983643,321.075867 162.912704,320.402283 163.177368,319.908630 
	C170.013306,307.159119 176.526596,294.214722 183.937805,281.807068 
	C186.630386,277.299164 191.480453,274.079956 195.681061,270.214600 
z"/>
<path fill="#02ACEA" opacity="1.000000" stroke="none" 
	d="
M210.311691,237.494232 
	C210.338577,237.574524 210.392151,237.702530 210.483978,237.790771 
	C210.574814,237.878067 210.704269,237.925171 210.816788,237.989899 
	C210.737671,237.924179 210.658554,237.858444 210.419495,237.640076 
	C210.259552,237.487442 210.355148,237.524521 210.311691,237.494232 
z"/>
</svg>