<?xml version="1.0" encoding="UTF-8"?>
<svg id="Layer_1" data-name="Layer 1" xmlns="http://www.w3.org/2000/svg" viewBox="0 0 166.38 172.06">
  <defs>
    <style>
      .cls-1 {
        fill: #fff;
        stroke-width: 0px;
      }
    </style>
  </defs>
  <g>
    <path class="cls-1" d="M148.06,137.6l-57.9-103.32-8.38-14.95-7.81,15.24-18.62,36.33c7.08.9,13.15,2.2,18.38,3.86l8.78-17.12,49.52,88.37,16.04-8.4"/>
    <path class="cls-1" d="M25.06,129.99l16.34,7.83,24.12-47.05c-4.81-1.3-10.93-2.38-18.79-3.05l-21.67,42.27Z"/>
  </g>
  <path class="cls-1" d="M83.19,0C37.25,0,0,38.52,0,86.03s37.25,86.03,83.19,86.03,83.19-38.52,83.19-86.03S129.14,0,83.19,0ZM136.49,124.55c-3.53,5.21-7.76,9.89-12.54,13.87-11.15,9.29-25.33,14.85-40.76,14.85-35.91,0-65.02-30.11-65.02-67.25S47.28,18.79,83.19,18.79s65.02,30.11,65.02,67.25c0,14.33-4.33,27.61-11.72,38.52Z"/>
</svg>